<svg width="37" height="37" viewBox="0 0 37 37" fill="none" xmlns="http://www.w3.org/2000/svg">
<path d="M7.70833 15.4167C6.0125 15.4167 4.625 16.8042 4.625 18.5001C4.625 20.1959 6.0125 21.5834 7.70833 21.5834C9.40417 21.5834 10.7917 20.1959 10.7917 18.5001C10.7917 16.8042 9.40417 15.4167 7.70833 15.4167Z" fill="black"/>
<path d="M29.2917 15.4167C27.5959 15.4167 26.2084 16.8042 26.2084 18.5001C26.2084 20.1959 27.5959 21.5834 29.2917 21.5834C30.9875 21.5834 32.375 20.1959 32.375 18.5001C32.375 16.8042 30.9875 15.4167 29.2917 15.4167Z" fill="black"/>
<path d="M18.5 15.4167C16.8041 15.4167 15.4166 16.8042 15.4166 18.5001C15.4166 20.1959 16.8041 21.5834 18.5 21.5834C20.1958 21.5834 21.5833 20.1959 21.5833 18.5001C21.5833 16.8042 20.1958 15.4167 18.5 15.4167Z" fill="black"/>
</svg>
